<svg xmlns="http://www.w3.org/2000/svg" fill="none" viewBox="0 0 21 21"><path fill="#8E8E8E" d="M11.666 11.553c-.205.151-.37.268-.5.353a3.132 3.132 0 0 1-.51.258 1.549 1.549 0 0 1-.59.132h-.01a1.553 1.553 0 0 1-.593-.132 3.055 3.055 0 0 1-.51-.258 11.37 11.37 0 0 1-.5-.353 8.246 8.246 0 0 0-.187-.136L5.532 14.15a.83.83 0 0 0 .565.214h7.923a.822.822 0 0 0 .564-.214l-2.732-2.733-.186.136ZM5.782 9.697c-.2-.133-.382-.29-.543-.469v4.159l2.409-2.409c-.484-.337-1.105-.764-1.866-1.281Zm8.565 0c-.733.496-1.356.923-1.87 1.281l2.408 2.408V9.227c-.16.178-.34.336-.538.47Z"/><path fill="#8E8E8E" d="m6.163 9.12 1.1.767.868.6.542.38.081.058.15.107c.115.084.212.153.29.2.076.047.17.111.28.176.098.06.202.108.31.145.087.03.178.047.27.049h.01a.857.857 0 0 0 .27-.049 1.6 1.6 0 0 0 .31-.145 8.58 8.58 0 0 0 .28-.176c.077-.051.173-.119.291-.2l.147-.107.081-.058.545-.38 1.974-1.37a2.58 2.58 0 0 0 .656-.662c.17-.237.261-.52.264-.812a.868.868 0 0 0-.862-.862H6.102a.771.771 0 0 0-.639.28 1.09 1.09 0 0 0-.223.7c.018.27.123.528.3.734.172.241.382.453.623.625Z"/><path fill="#8E8E8E" d="M10.155.128A10.134 10.134 0 1 0 20.29 10.264 10.147 10.147 0 0 0 10.155.128Zm8.835 10.136a8.835 8.835 0 1 1-8.835-8.835 8.847 8.847 0 0 1 8.835 8.835Z"/></svg>
