<svg xmlns="http://www.w3.org/2000/svg" fill="none" viewBox="0 0 22 21"><path fill="#8E8E8E" fill-rule="evenodd" d="M10.038 10.296v4.057a.105.105 0 0 0 .106.1h1.506a.099.099 0 0 0 .074-.027.1.1 0 0 0 .023-.034.097.097 0 0 0 .008-.039V10.23h1.092a.108.108 0 0 0 .106-.1l.1-1.242a.107.107 0 0 0-.063-.106.106.106 0 0 0-.042-.01h-1.2v-.88a.374.374 0 0 1 .374-.374h.842a.104.104 0 0 0 .098-.065.106.106 0 0 0 .008-.041V6.17a.106.106 0 0 0-.106-.106h-1.422a1.513 1.513 0 0 0-1.511 1.511v1.2h-.752a.107.107 0 0 0-.075.03.105.105 0 0 0-.03.076v1.242a.105.105 0 0 0 .105.106h.752l.007.067Z" clip-rule="evenodd"/><path fill="#8E8E8E" d="M11.126.128A10.134 10.134 0 1 0 21.26 10.264 10.147 10.147 0 0 0 11.126.128Zm8.835 10.136a8.836 8.836 0 1 1-2.59-6.245 8.846 8.846 0 0 1 2.593 6.245h-.003Z"/></svg>
