<svg xmlns="http://www.w3.org/2000/svg" fill="none" viewBox="0 0 21 21"><path fill="#8E8E8E" d="M13.783 7.487a.606.606 0 1 1-1.212 0 .606.606 0 0 1 1.212 0Zm-.755 2.722a2.55 2.55 0 1 1-5.1 0 2.55 2.55 0 0 1 5.1 0Zm-.917 0a1.634 1.634 0 1 0-3.265 0 1.634 1.634 0 0 0 3.264-.001h.001Zm3.529-2.05a3.11 3.11 0 0 0-3.11-3.11H8.283a3.11 3.11 0 0 0-3.11 3.11v4.247a3.111 3.111 0 0 0 3.11 3.11h4.245a3.11 3.11 0 0 0 3.11-3.11V8.16Zm-1.021 4.2a2.136 2.136 0 0 1-2.137 2.137h-4.15a2.133 2.133 0 0 1-2.136-2.136V8.208a2.136 2.136 0 0 1 2.136-2.136h4.15a2.137 2.137 0 0 1 2.137 2.136v4.152Z"/><path fill="#8E8E8E" d="M10.406.146a10.137 10.137 0 1 0 10.135 10.136A10.147 10.147 0 0 0 10.406.146Zm0 18.972A8.838 8.838 0 0 1 1.74 8.558a8.836 8.836 0 0 1 17.502 1.724 8.846 8.846 0 0 1-8.835 8.836Z"/></svg>
