<svg xmlns="http://www.w3.org/2000/svg" fill="none" viewBox="0 0 22 21"><path fill="#8E8E8E" d="M7.005 7.848H8.76v5.635H7.005V7.848Zm.877-2.8a1.015 1.015 0 1 1-.003 2.03 1.015 1.015 0 0 1 .003-2.03Zm1.976 8.435h1.75v-2.79c0-.734.14-1.446 1.052-1.446.9 0 .91.84.91 1.495v2.739h1.75v-3.09c0-1.52-.327-2.684-2.1-2.684a1.84 1.84 0 0 0-1.66.91h-.022v-.771h-1.68v5.637Z"/><path fill="#8E8E8E" d="M11.092.164a10.135 10.135 0 1 0 10.135 10.135A10.146 10.146 0 0 0 11.092.164Zm0 18.97a8.836 8.836 0 1 1 8.835-8.835 8.845 8.845 0 0 1-8.835 8.835Z"/></svg>
