<svg xmlns="http://www.w3.org/2000/svg" xml:space="preserve" viewBox="0 0 512 512"><path fill="#7a7674" d="M267.342 237.829 173.993 0h52.417l151.303 237.829z"/><path fill="#ada7a4" d="m497.958 259.18-14.559-7.004-6.745-14.284c-19.342-13.812-48.901-24.332-93.788-24.332H54.246l-20.761-53.215H0v138.37h257.708L173.993 512h52.417c21.565-37.033 130.957-205.984 135.685-213.286H512c0-7.22-2.641-23.282-14.042-39.534z"/><path fill="#fff" d="M477.952 262.091h12.133c3.005 0 5.75-1.098 7.868-2.907-5.136-7.322-12.051-14.679-21.303-21.286-6.088.65-10.831 5.801-10.831 12.061 0 6.699 5.432 12.132 12.133 12.132zm-48.531 0h-12.133c-6.701 0-12.133-5.433-12.133-12.133s5.432-12.133 12.133-12.133h12.133c6.701 0 12.133 5.433 12.133 12.133s-5.433 12.133-12.133 12.133zm-60.663 0h-12.133c-6.701 0-12.133-5.433-12.133-12.133s5.432-12.133 12.133-12.133h12.133c6.701 0 12.133 5.433 12.133 12.133s-5.434 12.133-12.133 12.133zm-60.664 0h-12.133c-6.701 0-12.133-5.433-12.133-12.133s5.432-12.133 12.133-12.133h12.133c6.701 0 12.133 5.433 12.133 12.133s-5.433 12.133-12.133 12.133zm-60.663 0h-12.133c-6.701 0-12.133-5.433-12.133-12.133s5.432-12.133 12.133-12.133h12.133c6.701 0 12.133 5.433 12.133 12.133s-5.434 12.133-12.133 12.133zm-60.664 0h-12.133c-6.701 0-12.133-5.433-12.133-12.133s5.432-12.133 12.133-12.133h12.133c6.701 0 12.133 5.433 12.133 12.133s-5.433 12.133-12.133 12.133zm-60.663 0h-12.133c-6.701 0-12.133-5.433-12.133-12.133s5.432-12.133 12.133-12.133h12.133c6.701 0 12.133 5.433 12.133 12.133s-5.434 12.133-12.133 12.133z"/></svg>
